<mxfile host="Electron" modified="2023-11-21T17:21:57.044Z" agent="Mozilla/5.0 (Windows NT 10.0; Win64; x64) AppleWebKit/537.36 (KHTML, like Gecko) draw.io/22.1.2 Chrome/114.0.5735.289 Electron/25.9.4 Safari/537.36" etag="InUKo6-fCYTL2jm5uaJi" version="22.1.2" type="device">
  <diagram id="U-0fV403eUzDE7zYnu7D" name="Page-1">
    <mxGraphModel dx="2284" dy="836" grid="1" gridSize="10" guides="1" tooltips="1" connect="1" arrows="1" fold="1" page="1" pageScale="1" pageWidth="850" pageHeight="1100" math="0" shadow="0">
      <root>
        <mxCell id="0" />
        <mxCell id="1" parent="0" />
        <mxCell id="UfrXtShlHGIPYOLb9mQC-39" value="" style="rounded=0;whiteSpace=wrap;html=1;dashed=1;dashPattern=1 4;fillColor=none;strokeWidth=2;" parent="1" vertex="1">
          <mxGeometry x="425" y="450" width="385" height="140" as="geometry" />
        </mxCell>
        <mxCell id="UfrXtShlHGIPYOLb9mQC-15" value="" style="rounded=0;whiteSpace=wrap;html=1;dashed=1;dashPattern=1 4;fillColor=none;strokeWidth=2;" parent="1" vertex="1">
          <mxGeometry y="230" width="380" height="370" as="geometry" />
        </mxCell>
        <mxCell id="UfrXtShlHGIPYOLb9mQC-14" value="" style="rounded=0;whiteSpace=wrap;html=1;dashed=1;dashPattern=1 4;fillColor=none;strokeWidth=2;" parent="1" vertex="1">
          <mxGeometry y="50" width="840" height="130" as="geometry" />
        </mxCell>
        <mxCell id="UfrXtShlHGIPYOLb9mQC-16" style="edgeStyle=orthogonalEdgeStyle;rounded=0;orthogonalLoop=1;jettySize=auto;html=1;exitX=1;exitY=0.5;exitDx=0;exitDy=0;entryX=0;entryY=0.5;entryDx=0;entryDy=0;fontFamily=Times New Roman;fontSize=17;" parent="1" source="UfrXtShlHGIPYOLb9mQC-1" target="UfrXtShlHGIPYOLb9mQC-2" edge="1">
          <mxGeometry relative="1" as="geometry" />
        </mxCell>
        <mxCell id="UfrXtShlHGIPYOLb9mQC-1" value="Existing logging attributes" style="rounded=1;whiteSpace=wrap;html=1;absoluteArcSize=1;arcSize=14;strokeWidth=2;fontFamily=Times New Roman;fillColor=none;fontSize=17;" parent="1" vertex="1">
          <mxGeometry x="40" y="70" width="160" height="90" as="geometry" />
        </mxCell>
        <mxCell id="UfrXtShlHGIPYOLb9mQC-17" style="edgeStyle=orthogonalEdgeStyle;rounded=0;orthogonalLoop=1;jettySize=auto;html=1;exitX=1;exitY=0.5;exitDx=0;exitDy=0;entryX=0;entryY=0.5;entryDx=0;entryDy=0;fontFamily=Times New Roman;fontSize=17;" parent="1" source="UfrXtShlHGIPYOLb9mQC-2" target="UfrXtShlHGIPYOLb9mQC-3" edge="1">
          <mxGeometry relative="1" as="geometry" />
        </mxCell>
        <mxCell id="UfrXtShlHGIPYOLb9mQC-2" value="Logging point placement" style="rounded=1;whiteSpace=wrap;html=1;absoluteArcSize=1;arcSize=14;strokeWidth=2;fontFamily=Times New Roman;fillColor=none;fontSize=17;" parent="1" vertex="1">
          <mxGeometry x="240" y="70" width="160" height="90" as="geometry" />
        </mxCell>
        <mxCell id="UfrXtShlHGIPYOLb9mQC-18" style="edgeStyle=orthogonalEdgeStyle;rounded=0;orthogonalLoop=1;jettySize=auto;html=1;exitX=1;exitY=0.5;exitDx=0;exitDy=0;fontFamily=Times New Roman;fontSize=17;" parent="1" source="UfrXtShlHGIPYOLb9mQC-3" target="UfrXtShlHGIPYOLb9mQC-4" edge="1">
          <mxGeometry relative="1" as="geometry" />
        </mxCell>
        <mxCell id="UfrXtShlHGIPYOLb9mQC-3" value="Log analyis tools" style="rounded=1;whiteSpace=wrap;html=1;absoluteArcSize=1;arcSize=14;strokeWidth=2;fontFamily=Times New Roman;fillColor=none;fontSize=17;" parent="1" vertex="1">
          <mxGeometry x="440" y="70" width="160" height="90" as="geometry" />
        </mxCell>
        <mxCell id="UfrXtShlHGIPYOLb9mQC-35" style="edgeStyle=orthogonalEdgeStyle;rounded=0;orthogonalLoop=1;jettySize=auto;html=1;entryX=0.5;entryY=0;entryDx=0;entryDy=0;fontFamily=Times New Roman;fontSize=17;endArrow=none;endFill=0;" parent="1" source="UfrXtShlHGIPYOLb9mQC-4" target="UfrXtShlHGIPYOLb9mQC-34" edge="1">
          <mxGeometry relative="1" as="geometry" />
        </mxCell>
        <mxCell id="UfrXtShlHGIPYOLb9mQC-4" value="Maintenance priotisation methods" style="rounded=1;whiteSpace=wrap;html=1;absoluteArcSize=1;arcSize=14;strokeWidth=2;fontFamily=Times New Roman;fillColor=none;fontSize=17;" parent="1" vertex="1">
          <mxGeometry x="640" y="70" width="160" height="90" as="geometry" />
        </mxCell>
        <mxCell id="UfrXtShlHGIPYOLb9mQC-29" style="edgeStyle=orthogonalEdgeStyle;rounded=0;orthogonalLoop=1;jettySize=auto;html=1;exitX=0;exitY=0.5;exitDx=0;exitDy=0;entryX=1;entryY=0.5;entryDx=0;entryDy=0;fontFamily=Times New Roman;fontSize=17;endArrow=classic;endFill=1;" parent="1" source="UfrXtShlHGIPYOLb9mQC-5" target="UfrXtShlHGIPYOLb9mQC-27" edge="1">
          <mxGeometry relative="1" as="geometry" />
        </mxCell>
        <mxCell id="UfrXtShlHGIPYOLb9mQC-5" value="Logging mechanism" style="rounded=1;whiteSpace=wrap;html=1;absoluteArcSize=1;arcSize=14;strokeWidth=2;fontFamily=Times New Roman;fillColor=none;fontSize=17;" parent="1" vertex="1">
          <mxGeometry x="640" y="270" width="160" height="90" as="geometry" />
        </mxCell>
        <mxCell id="UfrXtShlHGIPYOLb9mQC-21" style="edgeStyle=orthogonalEdgeStyle;rounded=0;orthogonalLoop=1;jettySize=auto;html=1;exitX=0;exitY=0.5;exitDx=0;exitDy=0;fontFamily=Times New Roman;fontSize=17;" parent="1" source="UfrXtShlHGIPYOLb9mQC-6" target="UfrXtShlHGIPYOLb9mQC-7" edge="1">
          <mxGeometry relative="1" as="geometry" />
        </mxCell>
        <mxCell id="UfrXtShlHGIPYOLb9mQC-6" value="Maintenance priortisation method" style="rounded=1;whiteSpace=wrap;html=1;absoluteArcSize=1;arcSize=14;strokeWidth=2;fontFamily=Times New Roman;fillColor=none;fontSize=17;" parent="1" vertex="1">
          <mxGeometry x="430" y="270" width="160" height="90" as="geometry" />
        </mxCell>
        <mxCell id="UfrXtShlHGIPYOLb9mQC-23" style="edgeStyle=orthogonalEdgeStyle;rounded=0;orthogonalLoop=1;jettySize=auto;html=1;exitX=0;exitY=0.5;exitDx=0;exitDy=0;entryX=1;entryY=0.5;entryDx=0;entryDy=0;entryPerimeter=0;fontFamily=Times New Roman;fontSize=17;" parent="1" source="UfrXtShlHGIPYOLb9mQC-7" target="UfrXtShlHGIPYOLb9mQC-9" edge="1">
          <mxGeometry relative="1" as="geometry" />
        </mxCell>
        <mxCell id="UfrXtShlHGIPYOLb9mQC-7" value="Create test case for verification" style="rounded=1;whiteSpace=wrap;html=1;absoluteArcSize=1;arcSize=14;strokeWidth=2;fontFamily=Times New Roman;fillColor=none;fontSize=17;" parent="1" vertex="1">
          <mxGeometry x="200" y="270" width="160" height="90" as="geometry" />
        </mxCell>
        <mxCell id="UfrXtShlHGIPYOLb9mQC-24" style="edgeStyle=orthogonalEdgeStyle;rounded=0;orthogonalLoop=1;jettySize=auto;html=1;exitX=0.5;exitY=1;exitDx=0;exitDy=0;exitPerimeter=0;entryX=0.5;entryY=0;entryDx=0;entryDy=0;entryPerimeter=0;fontFamily=Times New Roman;fontSize=17;" parent="1" source="UfrXtShlHGIPYOLb9mQC-9" target="UfrXtShlHGIPYOLb9mQC-10" edge="1">
          <mxGeometry relative="1" as="geometry" />
        </mxCell>
        <mxCell id="UfrXtShlHGIPYOLb9mQC-33" style="edgeStyle=orthogonalEdgeStyle;rounded=0;orthogonalLoop=1;jettySize=auto;html=1;exitX=0.5;exitY=0;exitDx=0;exitDy=0;exitPerimeter=0;fontFamily=Times New Roman;fontSize=17;endArrow=classic;endFill=1;entryX=0;entryY=0.5;entryDx=0;entryDy=0;" parent="1" source="UfrXtShlHGIPYOLb9mQC-9" target="UfrXtShlHGIPYOLb9mQC-34" edge="1">
          <mxGeometry relative="1" as="geometry">
            <mxPoint x="630" y="200" as="targetPoint" />
          </mxGeometry>
        </mxCell>
        <mxCell id="UfrXtShlHGIPYOLb9mQC-9" value="What is the &lt;br&gt;extent of the log quality?&amp;nbsp;" style="strokeWidth=2;html=1;shape=mxgraph.flowchart.decision;whiteSpace=wrap;fontFamily=Times New Roman;fillColor=none;fontSize=17;" parent="1" vertex="1">
          <mxGeometry x="10" y="240" width="150" height="150" as="geometry" />
        </mxCell>
        <mxCell id="UfrXtShlHGIPYOLb9mQC-25" style="edgeStyle=orthogonalEdgeStyle;rounded=0;orthogonalLoop=1;jettySize=auto;html=1;exitX=1;exitY=0.5;exitDx=0;exitDy=0;exitPerimeter=0;entryX=0;entryY=0.5;entryDx=0;entryDy=0;fontFamily=Times New Roman;fontSize=17;" parent="1" source="UfrXtShlHGIPYOLb9mQC-10" target="UfrXtShlHGIPYOLb9mQC-13" edge="1">
          <mxGeometry relative="1" as="geometry" />
        </mxCell>
        <mxCell id="UfrXtShlHGIPYOLb9mQC-37" style="edgeStyle=orthogonalEdgeStyle;rounded=0;orthogonalLoop=1;jettySize=auto;html=1;exitX=0.5;exitY=1;exitDx=0;exitDy=0;exitPerimeter=0;entryX=0.5;entryY=1;entryDx=0;entryDy=0;fontFamily=Times New Roman;fontSize=17;endArrow=classic;endFill=1;" parent="1" source="UfrXtShlHGIPYOLb9mQC-10" target="UfrXtShlHGIPYOLb9mQC-27" edge="1">
          <mxGeometry relative="1" as="geometry">
            <Array as="points">
              <mxPoint x="85" y="610" />
              <mxPoint x="840" y="610" />
              <mxPoint x="840" y="410" />
              <mxPoint x="615" y="410" />
            </Array>
          </mxGeometry>
        </mxCell>
        <mxCell id="UfrXtShlHGIPYOLb9mQC-10" value="Are the &lt;br&gt;results of the prioritisation adequate?" style="strokeWidth=2;html=1;shape=mxgraph.flowchart.decision;whiteSpace=wrap;fontFamily=Times New Roman;fillColor=none;fontSize=17;" parent="1" vertex="1">
          <mxGeometry x="10" y="440" width="150" height="150" as="geometry" />
        </mxCell>
        <mxCell id="UfrXtShlHGIPYOLb9mQC-11" value="Monitor" style="verticalLabelPosition=middle;verticalAlign=middle;html=1;shape=hexagon;perimeter=hexagonPerimeter2;arcSize=6;size=0.27;strokeWidth=2;fillColor=none;labelPosition=center;align=center;fontFamily=Times New Roman;fontSize=17;" parent="1" vertex="1">
          <mxGeometry x="640" y="475" width="160" height="80" as="geometry" />
        </mxCell>
        <mxCell id="UfrXtShlHGIPYOLb9mQC-22" style="edgeStyle=orthogonalEdgeStyle;rounded=0;orthogonalLoop=1;jettySize=auto;html=1;exitX=1;exitY=0.5;exitDx=0;exitDy=0;entryX=0;entryY=0.5;entryDx=0;entryDy=0;fontFamily=Times New Roman;fontSize=17;" parent="1" source="UfrXtShlHGIPYOLb9mQC-13" target="UfrXtShlHGIPYOLb9mQC-11" edge="1">
          <mxGeometry relative="1" as="geometry" />
        </mxCell>
        <mxCell id="UfrXtShlHGIPYOLb9mQC-13" value="Implement on case studies" style="rounded=1;whiteSpace=wrap;html=1;absoluteArcSize=1;arcSize=14;strokeWidth=2;fontFamily=Times New Roman;fillColor=none;fontSize=17;" parent="1" vertex="1">
          <mxGeometry x="440" y="470" width="160" height="90" as="geometry" />
        </mxCell>
        <mxCell id="UfrXtShlHGIPYOLb9mQC-30" style="edgeStyle=orthogonalEdgeStyle;rounded=0;orthogonalLoop=1;jettySize=auto;html=1;exitX=0;exitY=0.5;exitDx=0;exitDy=0;entryX=1;entryY=0.5;entryDx=0;entryDy=0;fontFamily=Times New Roman;fontSize=17;" parent="1" source="UfrXtShlHGIPYOLb9mQC-27" target="UfrXtShlHGIPYOLb9mQC-6" edge="1">
          <mxGeometry relative="1" as="geometry" />
        </mxCell>
        <mxCell id="UfrXtShlHGIPYOLb9mQC-27" value="" style="ellipse;whiteSpace=wrap;html=1;aspect=fixed;strokeWidth=2;fontFamily=Times New Roman;fontSize=17;fillColor=#000000;" parent="1" vertex="1">
          <mxGeometry x="610" y="310" width="10" height="10" as="geometry" />
        </mxCell>
        <mxCell id="UfrXtShlHGIPYOLb9mQC-36" style="edgeStyle=orthogonalEdgeStyle;rounded=0;orthogonalLoop=1;jettySize=auto;html=1;exitX=0.5;exitY=1;exitDx=0;exitDy=0;entryX=0.5;entryY=0;entryDx=0;entryDy=0;fontFamily=Times New Roman;fontSize=17;endArrow=classic;endFill=1;" parent="1" source="UfrXtShlHGIPYOLb9mQC-34" target="UfrXtShlHGIPYOLb9mQC-5" edge="1">
          <mxGeometry relative="1" as="geometry" />
        </mxCell>
        <mxCell id="UfrXtShlHGIPYOLb9mQC-34" value="" style="ellipse;whiteSpace=wrap;html=1;aspect=fixed;strokeWidth=2;fontFamily=Times New Roman;fontSize=17;fillColor=#000000;" parent="1" vertex="1">
          <mxGeometry x="715" y="210" width="10" height="10" as="geometry" />
        </mxCell>
        <mxCell id="UfrXtShlHGIPYOLb9mQC-38" value="" style="rounded=0;whiteSpace=wrap;html=1;dashed=1;dashPattern=1 4;fillColor=none;strokeWidth=2;" parent="1" vertex="1">
          <mxGeometry x="415" y="260" width="425" height="130" as="geometry" />
        </mxCell>
        <mxCell id="UfrXtShlHGIPYOLb9mQC-40" style="edgeStyle=orthogonalEdgeStyle;rounded=0;orthogonalLoop=1;jettySize=auto;html=1;exitX=1;exitY=0.5;exitDx=0;exitDy=0;entryX=0.5;entryY=0;entryDx=0;entryDy=0;fontFamily=Times New Roman;fontSize=17;endArrow=classic;endFill=1;" parent="1" source="UfrXtShlHGIPYOLb9mQC-11" target="UfrXtShlHGIPYOLb9mQC-11" edge="1">
          <mxGeometry relative="1" as="geometry">
            <Array as="points">
              <mxPoint x="820" y="515" />
              <mxPoint x="820" y="430" />
              <mxPoint x="720" y="430" />
            </Array>
          </mxGeometry>
        </mxCell>
        <mxCell id="UfrXtShlHGIPYOLb9mQC-41" value="Implement" style="text;html=1;strokeColor=none;fillColor=none;align=left;verticalAlign=middle;whiteSpace=wrap;rounded=0;dashed=1;dashPattern=1 4;strokeWidth=3;fontSize=16;fontFamily=Times New Roman;" parent="1" vertex="1">
          <mxGeometry x="425" y="420" width="180" height="30" as="geometry" />
        </mxCell>
        <mxCell id="UfrXtShlHGIPYOLb9mQC-42" value="Design" style="text;html=1;strokeColor=none;fillColor=none;align=left;verticalAlign=middle;whiteSpace=wrap;rounded=0;dashed=1;dashPattern=1 4;strokeWidth=3;fontSize=16;fontFamily=Times New Roman;" parent="1" vertex="1">
          <mxGeometry x="415" y="230" width="180" height="30" as="geometry" />
        </mxCell>
        <mxCell id="UfrXtShlHGIPYOLb9mQC-43" value="Verify" style="text;html=1;strokeColor=none;fillColor=none;align=left;verticalAlign=middle;whiteSpace=wrap;rounded=0;dashed=1;dashPattern=1 4;strokeWidth=3;fontSize=16;fontFamily=Times New Roman;" parent="1" vertex="1">
          <mxGeometry y="200" width="180" height="30" as="geometry" />
        </mxCell>
        <mxCell id="UfrXtShlHGIPYOLb9mQC-44" value="Investigate" style="text;html=1;strokeColor=none;fillColor=none;align=left;verticalAlign=middle;whiteSpace=wrap;rounded=0;dashed=1;dashPattern=1 4;strokeWidth=3;fontSize=16;fontFamily=Times New Roman;" parent="1" vertex="1">
          <mxGeometry y="20" width="180" height="30" as="geometry" />
        </mxCell>
        <mxCell id="stfFPIC2574BeWC7ZtHq-1" value="No" style="text;html=1;strokeColor=none;fillColor=none;align=left;verticalAlign=middle;whiteSpace=wrap;rounded=0;dashed=1;dashPattern=1 4;strokeWidth=3;fontSize=16;fontFamily=Times New Roman;" parent="1" vertex="1">
          <mxGeometry x="425" y="610" width="35" height="30" as="geometry" />
        </mxCell>
        <mxCell id="stfFPIC2574BeWC7ZtHq-2" value="Yes" style="text;html=1;strokeColor=none;fillColor=none;align=left;verticalAlign=middle;whiteSpace=wrap;rounded=0;dashed=1;dashPattern=1 4;strokeWidth=3;fontSize=16;fontFamily=Times New Roman;" parent="1" vertex="1">
          <mxGeometry x="262.5" y="490" width="35" height="30" as="geometry" />
        </mxCell>
        <mxCell id="stfFPIC2574BeWC7ZtHq-3" value="Unacceptable" style="text;html=1;strokeColor=none;fillColor=none;align=left;verticalAlign=middle;whiteSpace=wrap;rounded=0;dashed=1;dashPattern=1 4;strokeWidth=3;fontSize=16;fontFamily=Times New Roman;" parent="1" vertex="1">
          <mxGeometry x="360" y="190" width="80" height="30" as="geometry" />
        </mxCell>
        <mxCell id="stfFPIC2574BeWC7ZtHq-4" value="Acceptable" style="text;html=1;strokeColor=none;fillColor=none;align=left;verticalAlign=middle;whiteSpace=wrap;rounded=0;dashed=1;dashPattern=1 4;strokeWidth=3;fontSize=16;fontFamily=Times New Roman;" parent="1" vertex="1">
          <mxGeometry x="90" y="390" width="35" height="30" as="geometry" />
        </mxCell>
      </root>
    </mxGraphModel>
  </diagram>
</mxfile>
